<?xml version="1.0" encoding="utf-8"?>
<!-- Generator: Adobe Illustrator 17.1.0, SVG Export Plug-In . SVG Version: 6.00 Build 0)  -->
<!DOCTYPE svg PUBLIC "-//W3C//DTD SVG 1.1//EN" "http://www.w3.org/Graphics/SVG/1.1/DTD/svg11.dtd">
<svg version="1.1" id="Layer_1" xmlns="http://www.w3.org/2000/svg" xmlns:xlink="http://www.w3.org/1999/xlink" x="0px" y="0px"
	 viewBox="0 0 612 792" enable-background="new 0 0 612 792" xml:space="preserve">
<g>
	<g>
		<g>
			<g>
				<path fill="#FDA204" d="M380.8,541.9c0,0,0-37.3,0-72.9s0-72.9,0-72.9c0-21.3-8.9-41-21.3-55.2s-30.2-23.1-51.6-23.1
					s-41,8.9-55.2,23.1c-14.2,14.2-23.1,33.8-23.1,55.2c0,21.3,8.9,41,23.1,55.2c14.2,14.2,33.8,23.1,55.2,23.1
					c10.7,0,19.5-1.8,28.4-5.3c8.9-3.6,17.8-8.9,24.9-14.2c0,14.2,0,28.4,0,42.7c0,14.2,0,28.4,0,42.7c-8.9,3.6-16,5.3-24.9,7.1
					c-8.9,1.8-17.8,1.8-26.7,1.8c-42.7,0-80.1-17.8-108.5-44.5c-28.4-26.7-44.5-65.8-44.5-108.5s17.8-80.1,44.5-108.5
					c28.4-28.4,65.8-44.5,108.5-44.5s80.1,17.8,106.7,46.3c26.7,28.4,44.5,67.6,44.5,108.5c0,0,0,35.5,0,72.9c0,35.5,0,72.9,0,72.9"
					/>
			</g>
		</g>
	</g>
	<g>
		<path fill="#FDA204" d="M306,702c-81.8,0-158.3-32-217.1-88.9C30.2,554.4,0,477.9,0,396c0-81.8,32-158.3,88.9-217.1
			C147.6,120.2,224.1,90,306,90s158.3,32,217.1,88.9C581.8,237.6,612,314.1,612,396c0,81.8-32,158.3-88.9,217.1
			C464.4,670,387.9,702,306,702z M306,161.1C176.1,161.1,71.2,266,71.2,395.9S176.1,630.8,306,630.8S540.8,525.9,540.8,396
			S435.9,161.1,306,161.1z"/>
	</g>
</g>
</svg>
